#N canvas 414 117 775 440 10;
#X declare -lib mrpeach;
#X obj 34 10 import mrpeach;
#X obj 58 322 udpsend;
#X obj 289 142 packOSC;
#X msg 58 81 connect localhost 9000;
#X obj 30 57 loadbang;
#X obj 584 37 udpreceive 9001;
#X obj 584 69 unpackOSC;
#X obj 584 100 print RECEIVED;
#X text 284 33 Sending a message :;
#X obj 30 175 packOSC;
#X text 43 125 Subscribe to receive all messages;
#X msg 30 148 /sys/subscribe 9001 /;
#X msg 289 90 /some/address 1234 blabla;
#X connect 2 0 1 0;
#X connect 3 0 1 0;
#X connect 4 0 3 0;
#X connect 4 0 11 0;
#X connect 5 0 6 0;
#X connect 6 0 7 0;
#X connect 9 0 1 0;
#X connect 11 0 9 0;
#X connect 12 0 2 0;
