#N canvas 66 82 450 300 10;
#X obj 77 352 osc~;
#X obj 147 388 *~;
#X msg 144 242 1;
#X msg 179 242 0;
#X obj 144 211 bng 15 250 50 0 empty empty empty 17 7 0 10 -262144
-1 -1;
#X obj 179 211 bng 15 250 50 0 empty empty empty 17 7 0 10 -262144
-1 -1;
#X obj 45 97 unpack f f;
#X floatatom 45 121 5 0 0 0 - - -;
#X obj 83 41 route /xy /on /off;
#X obj 162 367 line~;
#X msg 162 339 \$1 20;
#X obj 83 12 inlet;
#X obj 54 320 +~;
#X obj 37 228 *~;
#X obj 52 183 *;
#X floatatom 83 121 5 0 0 0 - - -;
#X obj 147 417 outlet~;
#X floatatom 52 206 5 0 0 0 - - -;
#X floatatom 69 298 5 0 0 0 - - -;
#X obj 19 206 osc~;
#X obj 13 160 *;
#X obj 13 182 * 100;
#X obj 83 150 * \$1;
#X obj 69 265 + \$1;
#X connect 0 0 1 0;
#X connect 1 0 16 0;
#X connect 2 0 10 0;
#X connect 3 0 10 0;
#X connect 4 0 2 0;
#X connect 5 0 3 0;
#X connect 6 0 7 0;
#X connect 6 1 15 0;
#X connect 7 0 14 0;
#X connect 7 0 20 0;
#X connect 8 0 6 0;
#X connect 8 1 4 0;
#X connect 8 2 5 0;
#X connect 9 0 1 1;
#X connect 10 0 9 0;
#X connect 11 0 8 0;
#X connect 12 0 0 0;
#X connect 13 0 12 0;
#X connect 14 0 17 0;
#X connect 15 0 20 1;
#X connect 15 0 22 0;
#X connect 17 0 13 1;
#X connect 18 0 12 1;
#X connect 19 0 13 0;
#X connect 20 0 21 0;
#X connect 21 0 19 0;
#X connect 22 0 14 1;
#X connect 22 0 23 0;
#X connect 23 0 18 0;
