#N canvas 65 54 1301 714 10;
#X declare -lib mrpeach;
#X obj 756 -77 udpreceive 9001;
#X obj 756 -47 unpackOSC;
#X obj 787 219 dac~;
#X obj 16 -252 import mrpeach;
#X obj 756 -17 routeOSC /0 /1 /2 /3 /4 /5;
#X obj 756 34 fm-synth 110;
#X obj 781 53 fm-synth 330;
#X obj 807 72 fm-synth 660;
#X obj 832 91 fm-synth 1100;
#X obj 858 110 fm-synth 2200;
#X obj 883 129 fm-synth 3300;
#X obj 164 253 udpsend;
#X obj 88 173 packOSC;
#X msg 244 175 connect localhost 9000;
#X obj 169 -126 loadbang;
#X obj 662 -17 print received;
#X msg 80 74 /sys/subscribe 9001 /\$1/on;
#X msg 94 91 /sys/subscribe 9001 /\$1/off;
#X msg 110 108 /sys/subscribe 9001 /\$1/xy;
#X msg 67 -32 0;
#X msg 77 -22 1;
#X msg 87 -12 2;
#X msg 97 -2 3;
#X msg 107 8 4;
#X msg 117 18 5;
#X obj 94 48 f;
#X obj 169 -104 t b b;
#X text 36 -178 On starting of the patch \, subscribe to all the addresses
we are interested into : /<userId>/on \, /<userId>/off and /<userId>/xy
;
#X text 660 -175 Handles the incoming messages to control a crappy
synthesizer;
#X connect 0 0 1 0;
#X connect 1 0 4 0;
#X connect 1 0 15 0;
#X connect 4 0 5 0;
#X connect 4 1 6 0;
#X connect 4 2 7 0;
#X connect 4 3 8 0;
#X connect 4 4 9 0;
#X connect 4 5 10 0;
#X connect 5 0 2 0;
#X connect 5 0 2 1;
#X connect 6 0 2 0;
#X connect 6 0 2 1;
#X connect 7 0 2 0;
#X connect 7 0 2 1;
#X connect 8 0 2 0;
#X connect 8 0 2 1;
#X connect 9 0 2 0;
#X connect 9 0 2 1;
#X connect 10 0 2 0;
#X connect 10 0 2 1;
#X connect 12 0 11 0;
#X connect 13 0 11 0;
#X connect 14 0 26 0;
#X connect 16 0 12 0;
#X connect 17 0 12 0;
#X connect 18 0 12 0;
#X connect 19 0 25 0;
#X connect 20 0 25 0;
#X connect 21 0 25 0;
#X connect 22 0 25 0;
#X connect 23 0 25 0;
#X connect 24 0 25 0;
#X connect 25 0 16 0;
#X connect 25 0 17 0;
#X connect 25 0 18 0;
#X connect 26 0 19 0;
#X connect 26 0 20 0;
#X connect 26 0 21 0;
#X connect 26 0 22 0;
#X connect 26 0 23 0;
#X connect 26 0 24 0;
#X connect 26 1 13 0;
