#N canvas 137 244 929 477 10;
#X declare -lib mrpeach;
#X obj 155 28 udpreceive 9001;
#X obj 155 58 unpackOSC;
#X obj 186 324 dac~;
#X obj 38 27 import mrpeach;
#X obj 155 88 routeOSC /0 /1 /2 /3 /4 /5;
#X obj 155 139 fm-synth 110;
#X obj 180 158 fm-synth 330;
#X obj 206 177 fm-synth 660;
#X obj 231 196 fm-synth 1100;
#X obj 257 215 fm-synth 2200;
#X obj 282 234 fm-synth 3300;
#X connect 0 0 1 0;
#X connect 1 0 4 0;
#X connect 4 0 5 0;
#X connect 4 1 6 0;
#X connect 4 2 7 0;
#X connect 4 3 8 0;
#X connect 4 4 9 0;
#X connect 4 5 10 0;
#X connect 5 0 2 0;
#X connect 5 0 2 1;
#X connect 6 0 2 0;
#X connect 6 0 2 1;
#X connect 7 0 2 0;
#X connect 7 0 2 1;
#X connect 8 0 2 0;
#X connect 8 0 2 1;
#X connect 9 0 2 0;
#X connect 9 0 2 1;
#X connect 10 0 2 0;
#X connect 10 0 2 1;
