#N canvas 559 82 660 398 10;
#X obj 58 27 import mrpeach;
#X obj 58 354 udpsend;
#X msg 58 81 connect localhost 9000;
#X obj 58 57 loadbang;
#X obj 71 326 packOSC;
#X obj 364 33 tgl 15 0 empty empty empty 17 7 0 10 -262144 -1 -1 0
1;
#X floatatom 476 44 5 0 0 0 - - -, f 5;
#X text 476 22 bpm;
#X obj 476 63 t b f;
#X msg 476 84 60000;
#X obj 476 105 /;
#X obj 364 58 t f b;
#X obj 391 144 f;
#X obj 364 144 +;
#X msg 364 118 1;
#X msg 391 118 -1;
#X obj 364 239 pack;
#X obj 364 171 t f f;
#X msg 364 263 /metro \$1 \$2;
#X obj 402 197 % 4;
#X obj 364 196 div 4;
#X floatatom 475 165 5 0 0 0 - - -, f 5;
#X obj 364 82 metro 800;
#X floatatom 364 218 5 0 0 0 - - -, f 5;
#X floatatom 402 218 5 0 0 0 - - -, f 5;
#X msg 475 262 /configure 20 \$1;
#X text 461 242 20 is total number of bars;
#X text 475 142 maxBeat (beats per bar);
#X connect 2 0 1 0;
#X connect 3 0 2 0;
#X connect 4 0 1 0;
#X connect 5 0 11 0;
#X connect 6 0 8 0;
#X connect 8 0 9 0;
#X connect 8 1 10 1;
#X connect 9 0 10 0;
#X connect 10 0 22 1;
#X connect 11 0 22 0;
#X connect 11 1 15 0;
#X connect 12 0 13 1;
#X connect 13 0 12 0;
#X connect 13 0 17 0;
#X connect 14 0 13 0;
#X connect 15 0 12 0;
#X connect 16 0 18 0;
#X connect 17 0 20 0;
#X connect 17 1 19 0;
#X connect 18 0 4 0;
#X connect 19 0 24 0;
#X connect 20 0 23 0;
#X connect 21 0 19 1;
#X connect 21 0 20 1;
#X connect 21 0 25 0;
#X connect 22 0 14 0;
#X connect 23 0 16 0;
#X connect 24 0 16 1;
#X connect 25 0 4 0;
