#N canvas 457 142 775 440 10;
#X declare -lib mrpeach;
#X obj 34 10 import mrpeach;
#X obj 36 263 udpsend;
#X obj 197 215 packOSC;
#X msg 36 215 connect localhost 9000;
#X obj 36 187 loadbang;
#X msg 334 162 /color/upperCanvas 12 green;
#X msg 384 222 /color/wot 12 green;
#X msg 454 303 /hello there;
#X text 193 11 Change lower canvas to red;
#X text 250 70 Change upper canvas to green;
#X text 335 140 Correct message but for another user;
#X text 385 200 Unknown element;
#X text 454 267 The click page is not listening to this address \,
nothing happens;
#X obj 37 70 udpreceive 9001;
#X obj 37 102 unpackOSC;
#X obj 37 133 print RECEIVED;
#X msg 253 93 /color/upperCanvas 0 green;
#X msg 188 32 /color/lowerCanvas 0 red;
#X connect 2 0 1 0;
#X connect 3 0 1 0;
#X connect 4 0 3 0;
#X connect 5 0 2 0;
#X connect 6 0 2 0;
#X connect 7 0 2 0;
#X connect 13 0 14 0;
#X connect 14 0 15 0;
#X connect 16 0 2 0;
#X connect 17 0 2 0;
